<svg width="178" height="35" viewBox="0 0 178 35" fill="none" xmlns="http://www.w3.org/2000/svg">
<path d="M168.289 29.333C168.289 26.7652 170.405 24.6505 172.974 24.6505C175.544 24.6505 177.66 26.7652 177.66 29.333C177.66 31.9009 175.544 34.0156 172.974 34.0156C170.405 34.0911 168.289 31.9764 168.289 29.333Z" fill="#C1C1C1"/>
<path d="M18.3422 16.9471C18.3422 14.0016 17.7376 11.7359 16.6039 10.3009C15.4703 8.86595 13.7319 8.11073 11.3889 8.11073H8.89503V26.3121H10.7845C13.3541 26.3121 15.319 25.5569 16.5283 23.9709C17.7375 22.4604 18.3422 20.1191 18.3422 16.9471ZM27.2603 16.645C27.2603 22.0828 25.8244 26.2366 22.8769 29.1821C19.9294 32.1275 15.8481 33.5625 10.5577 33.5625H0.279053V1.08691H11.2378C16.3015 1.08691 20.2317 2.44639 23.028 5.08975C25.9 7.73311 27.2603 11.5849 27.2603 16.645Z" fill="#C1C1C1"/>
<path d="M55.6775 33.5625H63.8399V0.935913H55.6775V33.5625Z" fill="#C1C1C1"/>
<path d="M75.328 21.4031C75.328 23.5178 75.6304 25.1038 76.1594 26.1611C76.6885 27.2185 77.5953 27.8227 78.8801 27.8227C80.1649 27.8227 81.0719 27.294 81.601 26.1611C82.13 25.1038 82.3567 23.5178 82.3567 21.4031C82.3567 19.3639 82.13 17.7779 81.601 16.7205C81.0719 15.6632 80.1649 15.1346 78.8801 15.1346C77.5953 15.1346 76.764 15.6632 76.1594 16.7205C75.6304 17.7024 75.328 19.2884 75.328 21.4031ZM90.6703 21.4031C90.6703 25.3304 89.6121 28.4269 87.5715 30.6926C85.4554 32.8828 82.5835 34.0157 78.8046 34.0157C75.1769 34.0157 72.3805 32.8828 70.2643 30.6171C68.1481 28.3513 67.0901 25.2548 67.0901 21.4031C67.0901 17.4758 68.1481 14.3793 70.1887 12.1891C72.3048 9.99886 75.1769 8.94153 78.9558 8.94153C81.2987 8.94153 83.3392 9.4702 85.1531 10.452C86.967 11.4338 88.3273 12.9443 89.3099 14.8324C90.2168 16.645 90.6703 18.8352 90.6703 21.4031Z" fill="#C1C1C1"/>
<path d="M93.92 33.5626H102.082V21.101V9.31921H93.92V33.5626Z" fill="#C1C1C1"/>
<path d="M93.92 6.37365H102.082V0.935913H93.92V6.37365Z" fill="#C1C1C1"/>
<path d="M118.634 27.3695C119.767 27.3695 121.052 27.0674 122.564 26.5387V32.6562C121.43 33.1094 120.448 33.487 119.39 33.7135C118.407 33.9401 117.198 34.0157 115.913 34.0157C113.192 34.0157 111.227 33.3359 109.942 31.9765C108.733 30.617 108.128 28.5023 108.128 25.6324V15.6632H105.257V9.31912H108.128V3.1261L116.366 1.69116V9.31912H121.581V15.5876H116.366V25.0282C116.442 26.6142 117.198 27.3695 118.634 27.3695Z" fill="#C1C1C1"/>
<path d="M137.528 27.3695C138.662 27.3695 139.947 27.0674 141.458 26.5387V32.6562C140.325 33.1094 139.342 33.487 138.284 33.7135C137.302 33.9401 136.092 34.0157 134.808 34.0157C132.087 34.0157 130.122 33.3359 128.912 31.9765C127.703 30.617 127.099 28.5023 127.099 25.6324V15.6632H124.227V9.31912H127.099V3.05059L135.337 1.69116V9.31912H140.552V15.5876H135.337V25.0282C135.337 26.6142 136.092 27.3695 137.528 27.3695Z" fill="#C1C1C1"/>
<path d="M151.813 18.4575C151.888 17.0981 152.266 16.1918 152.946 15.5121C153.626 14.9079 154.382 14.6058 155.365 14.6058C156.423 14.6058 157.254 14.9835 157.859 15.6632C158.463 16.3429 158.841 17.3247 158.841 18.4575H151.813ZM163.376 11.7359C161.411 9.84778 158.69 8.86597 155.138 8.86597C151.359 8.86597 148.487 9.9233 146.522 12.1135C144.482 14.3037 143.499 17.4758 143.499 21.5541C143.499 25.4814 144.557 28.5779 146.749 30.6925C148.941 32.8072 151.964 33.9401 155.969 33.9401C157.859 33.9401 159.522 33.789 160.882 33.5625C162.242 33.3359 163.527 32.8827 164.812 32.203L163.527 26.7653C162.62 27.1429 161.713 27.445 160.882 27.596C159.673 27.8981 158.388 28.0492 156.952 28.0492C155.365 28.0492 154.156 27.6716 153.249 26.9163C152.342 26.1611 151.888 25.1037 151.813 23.7443H166.399V20.0436C166.248 16.4184 165.265 13.624 163.376 11.7359Z" fill="#C1C1C1"/>
<path d="M38.1437 18.4575C38.2193 17.0981 38.5972 16.1918 39.2774 15.5121C39.9576 14.9079 40.7133 14.6058 41.6958 14.6058C42.7539 14.6058 43.5853 14.9835 44.1899 15.6632C44.7946 16.3429 45.0969 17.3247 45.1725 18.4575H38.1437ZM49.6315 11.7359C47.6665 9.84778 44.9458 8.86597 41.3936 8.86597C37.6147 8.86597 34.7426 9.9233 32.7776 12.1135C30.8126 14.3037 29.7545 17.4758 29.7545 21.5541C29.7545 25.4814 30.8126 28.5779 33.0044 30.6925C35.1962 32.8072 38.2193 33.9401 42.1494 33.9401C44.0388 33.9401 45.7015 33.789 47.0619 33.5625C48.4223 33.3359 49.7071 32.8827 50.9919 32.203L49.7072 26.7653C48.8002 27.1429 47.8933 27.445 47.0619 27.596C45.8527 27.8981 44.5677 28.0492 43.1317 28.0492C41.5446 28.0492 40.3354 27.6716 39.4285 26.9163C38.5216 26.1611 38.0682 25.1037 37.9926 23.7443H52.579V20.0436C52.579 16.4184 51.5965 13.624 49.6315 11.7359Z" fill="#C1C1C1"/>
</svg>
